# xmcd
#
# Track frame offsets:
#	150
#	26224
#	47818
#	63516
#	81993
#	106921
#	132991
#	160454
#	181989
#	207397
#
# Disc length: 3079 seconds
#
# Revision: 1
# Processed by: cddbd v1.5.2PL0 Copyright (c) Steve Scherf et al.
# Submitted via: EZCDAudioConverter 8.0.2.1
#
DISCID=900c050a
DTITLE=Ngọc Khuê - Vol 03. 365.hanoi.nk
DYEAR=2008
DGENRE=World Pop
TTITLE0=Mãi vẫn là tuổi thơ tôi Hà Nội
TTITLE1=Lãng đãng chiều đông Hà Nội
TTITLE2=Đêm tựa cửa
TTITLE3=Hà Nội đêm mưa đông
TTITLE4=Cốm làng Vòng
TTITLE5=Hà Nội
TTITLE6=Áo trắng em qua
TTITLE7=Nồng nàn Hà Nội
TTITLE8=Cảm giác yêu
TTITLE9=Gọi tôi Hà Nội
EXTD=
EXTT0=
EXTT1=
EXTT2=
EXTT3=
EXTT4=
EXTT5=
EXTT6=
EXTT7=
EXTT8=
EXTT9=
PLAYORDER=
